/* XPM */
static char const * const icon_xpm[] = {
/* columns rows colors chars-per-pixel */
"48 48 10 1 ",
"  c black",
". c #0E121B",
"X c #0F131D",
"o c #222222",
"O c #777777",
"+ c #6081C1",
"@ c #6D92DB",
"# c #808080",
"$ c #E1E1E1",
"% c white",
/* pixels */
"                                                ",
"                                                ",
"                                                ",
"   @@@@@@@@@@@@@@@@@@@@@@@@@@@@@@@@@@@@@@@@@@   ",
"   @@@@@@@@@@@@@@@@@@@@@@@@@@@@@@@@@@@@@@@@@@   ",
"   @@@@@@@@@@@@@@@@@@@@@@@@@@@@@@@@@@@@@@@@@@   ",
"   @@@@@@@@@@@@@@@@@@@@@@@@@@@@@@@@@@@@@@@@@@   ",
"   @@@@@@@@@@@@@@@@@@@@@@@@@@@@@@@@@@@@@@@@@@   ",
"   @@@@@@@@@@@@@@@@@@@@@@@@@@@@@@@@@@@@@@@@@@   ",
"   @@@@@@@@@@@@@@@@@@@@@@@@@@@@@@@@@@@@@@@@@@   ",
"   @@@@@@@@@@@@@@@@@@@@@@@@@@@@@@@@@@@@@@@@@@   ",
"   @@@@@@@@@@@@@@@@@@@@@@@@@@@@@@@@@@@@@@@@@@   ",
"   @@@@@@@@@                        @@@@@@@@@   ",
"   @@@@@@@@@                        @@@@@@@@@   ",
"   @@@@@@@@@                        @@@@@@@@@   ",
"   @@@@@@@@@   %%%%%%%%%%%%%%%%%%   @@@@@@@@@   ",
"   @@@@@@@@@   %%%%%%%%%%%%%%%%%%   @@@@@@@@@   ",
"   @@@@@@@@@   %%%%%%%%%%%%%%%%%%   @@@@@@@@@   ",
"   @@@@@@@@@   O%%%$o         %%%   @@@@@@@@@   ",
"   @@@@@@@@@.   O%%%$o        %%%   @@@@@@@@@   ",
"   @@@@@@@@@+X   O%%%$o       %%%   @@@@@@@@@   ",
"   @@@@@@@@@@+X   O%%%$o            @@@@@@@@@   ",
"   @@@@@@@@@@@+X   O%%%$o           @@@@@@@@@   ",
"   @@@@@@@@@@@@+X   O%%%$o          @@@@@@@@@   ",
"   @@@@@@@@@@@@+X   #%%%$o          @@@@@@@@@   ",
"   @@@@@@@@@@@+X   #%%%$o           @@@@@@@@@   ",
"   @@@@@@@@@@+X   #%%%$o            @@@@@@@@@   ",
"   @@@@@@@@@+X   #%%%$o       %%%   @@@@@@@@@   ",
"   @@@@@@@@@.   #%%%$o        %%%   @@@@@@@@@   ",
"   @@@@@@@@@   #%%%$o         %%%   @@@@@@@@@   ",
"   @@@@@@@@@   %%%%%%%%%%%%%%%%%%   @@@@@@@@@   ",
"   @@@@@@@@@   %%%%%%%%%%%%%%%%%%   @@@@@@@@@   ",
"   @@@@@@@@@   %%%%%%%%%%%%%%%%%%   @@@@@@@@@   ",
"   @@@@@@@@@                        @@@@@@@@@   ",
"   @@@@@@@@@                        @@@@@@@@@   ",
"   @@@@@@@@@                        @@@@@@@@@   ",
"   @@@@@@@@@@@@@@@@@@@@@@@@@@@@@@@@@@@@@@@@@@   ",
"   @@@@@@@@@@@@@@@@@@@@@@@@@@@@@@@@@@@@@@@@@@   ",
"   @@@@@@@@@@@@@@@@@@@@@@@@@@@@@@@@@@@@@@@@@@   ",
"   @@@@@@@@@@@@@@@@@@@@@@@@@@@@@@@@@@@@@@@@@@   ",
"   @@@@@@@@@@@@@@@@@@@@@@@@@@@@@@@@@@@@@@@@@@   ",
"   @@@@@@@@@@@@@@@@@@@@@@@@@@@@@@@@@@@@@@@@@@   ",
"   @@@@@@@@@@@@@@@@@@@@@@@@@@@@@@@@@@@@@@@@@@   ",
"   @@@@@@@@@@@@@@@@@@@@@@@@@@@@@@@@@@@@@@@@@@   ",
"   @@@@@@@@@@@@@@@@@@@@@@@@@@@@@@@@@@@@@@@@@@   ",
"                                                ",
"                                                ",
"                                                "
};
